<svg preserveAspectRatio="none" width="100%" height="100%" overflow="visible" style="display: block;" viewBox="0 0 23.63 24" fill="none" xmlns="http://www.w3.org/2000/svg">
<g id="SVG">
<path id="Vector" d="M22.2122 12.2461C22.2122 11.4782 22.1433 10.7397 22.0153 10.0308H11.815V14.2252H17.6437C17.3877 15.574 16.6198 16.7162 15.4678 17.4841V20.2114H18.9828C21.0307 18.321 22.2122 15.5445 22.2122 12.2461V12.2461" fill="var(--fill-0, #4285F4)"/>
<path id="Vector_2" d="M11.815 22.8304C14.7392 22.8304 17.1908 21.8655 18.9828 20.2114L15.4678 17.4841C14.5029 18.134 13.2722 18.5278 11.815 18.5278C8.99909 18.5278 6.60655 16.6275 5.74997 14.0676H2.14639V16.8638C3.92849 20.3985 7.58129 22.8304 11.815 22.8304V22.8304" fill="var(--fill-0, #34A853)"/>
<path id="Vector_3" d="M5.74997 14.0578C5.53336 13.408 5.40536 12.7187 5.40536 12C5.40536 11.2813 5.53336 10.592 5.74997 9.94222V7.146H2.14639C1.40795 8.60319 0.984583 10.2474 0.984583 12C0.984583 13.7526 1.40795 15.3968 2.14639 16.854L4.95245 14.6682L5.74997 14.0578V14.0578" fill="var(--fill-0, #FBBC05)"/>
<path id="Vector_4" d="M11.815 5.48206C13.41 5.48206 14.8278 6.03343 15.9601 7.09678L19.0615 3.99534C17.181 2.24278 14.7392 1.16958 11.815 1.16958C7.58129 1.16958 3.92849 3.6015 2.14639 7.146L5.74997 9.94222C6.60655 7.3823 8.99909 5.48206 11.815 5.48206V5.48206" fill="var(--fill-0, #EA4335)"/>
</g>
</svg>
