<svg preserveAspectRatio="none" width="100%" height="100%" overflow="visible" style="display: block;" viewBox="0 0 40 40" fill="none" xmlns="http://www.w3.org/2000/svg">
<g id="Container">
<path id="Icon" d="M20 40C17.2333 40 14.6333 39.475 12.2 38.425C9.76667 37.375 7.65 35.95 5.85 34.15C4.05 32.35 2.625 30.2333 1.575 27.8C0.525 25.3667 0 22.7667 0 20C0 17.2333 0.525 14.6333 1.575 12.2C2.625 9.76667 4.05 7.65 5.85 5.85C7.65 4.05 9.76667 2.625 12.2 1.575C14.6333 0.525 17.2333 0 20 0C22.7667 0 25.3667 0.525 27.8 1.575C30.2333 2.625 32.35 4.05 34.15 5.85C35.95 7.65 37.375 9.76667 38.425 12.2C39.475 14.6333 40 17.2333 40 20C40 22.7667 39.475 25.3667 38.425 27.8C37.375 30.2333 35.95 32.35 34.15 34.15C32.35 35.95 30.2333 37.375 27.8 38.425C25.3667 39.475 22.7667 40 20 40V40M30 15L32.7 14.1L33.5 11.4C32.4333 9.8 31.15 8.425 29.65 7.275C28.15 6.125 26.5 5.26667 24.7 4.7L22 6.6V9.4L30 15V15M10 15L18 9.4V6.6L15.3 4.7C13.5 5.26667 11.85 6.125 10.35 7.275C8.85 8.425 7.56667 9.8 6.5 11.4L7.3 14.1L10 15V15M7.9 30.4L10.2 30.2L11.7 27.5L8.8 18.8L6 17.8L4 19.3C4 21.4667 4.3 23.4417 4.9 25.225C5.5 27.0083 6.5 28.7333 7.9 30.4V30.4M20 36C20.8667 36 21.7167 35.9333 22.55 35.8C23.3833 35.6667 24.2 35.4667 25 35.2L26.4 32.2L25.1 30H14.9L13.6 32.2L15 35.2C15.8 35.4667 16.6167 35.6667 17.45 35.8C18.2833 35.9333 19.1333 36 20 36V36M15.5 26H24.5L27.3 18L20 12.9L12.8 18L15.5 26V26M32.1 30.4C33.5 28.7333 34.5 27.0083 35.1 25.225C35.7 23.4417 36 21.4667 36 19.3L34 17.9L31.2 18.8L28.3 27.5L29.8 30.2L32.1 30.4V30.4" fill="var(--fill-0, white)"/>
</g>
</svg>
